HIERARCHY
ROOT root
{
	OFFSET 0.000000 0.000000 0.000000
	CHANNELS 6 Xposition Yposition Zposition Zrotation Yrotation Xrotation
	JOINT lhip
	{
		OFFSET 0.058581 -0.082280 -0.017664
		CHANNELS 3 Zrotation Yrotation Xrotation
		JOINT lknee
		{
			OFFSET 0.043451 -0.386469 0.008037
			CHANNELS 3 Zrotation Yrotation Xrotation
			JOINT lankle
			{
				OFFSET -0.014790 -0.426874 -0.037428
				CHANNELS 3 Zrotation Yrotation Xrotation
				JOINT ltoe
				{
					OFFSET 0.041054 -0.060286 0.122042
					CHANNELS 3 Zrotation Yrotation Xrotation
					End Site
					{
						OFFSET 0.000000 0.000000 0.000000
					}
				}
			}
		}
	}
	JOINT rhip
	{
		OFFSET -0.060310 -0.090513 -0.013543
		CHANNELS 3 Zrotation Yrotation Xrotation
		JOINT rknee
		{
			OFFSET -0.043257 -0.383688 -0.004843
			CHANNELS 3 Zrotation Yrotation Xrotation
			JOINT rankle
			{
				OFFSET 0.019056 -0.420046 -0.034562
				CHANNELS 3 Zrotation Yrotation Xrotation
				JOINT rtoe
				{
					OFFSET -0.034840 -0.062106 0.130323
					CHANNELS 3 Zrotation Yrotation Xrotation
					End Site
					{
						OFFSET 0.000000 0.000000 0.000000
					}
				}
			}
		}
	}
	JOINT lowerback
	{
		OFFSET 0.004439 0.124404 -0.038385
		CHANNELS 3 Zrotation Yrotation Xrotation
		JOINT upperback
		{
			OFFSET 0.004488 0.137956 0.026820
			CHANNELS 3 Zrotation Yrotation Xrotation
			JOINT chest
			{
				OFFSET -0.002265 0.056032 0.002855
				CHANNELS 3 Zrotation Yrotation Xrotation
				JOINT lowerneck
				{
					OFFSET -0.013390 0.211636 -0.033468
					CHANNELS 3 Zrotation Yrotation Xrotation
					JOINT upperneck
					{
						OFFSET 0.010113 0.088937 0.050410
						CHANNELS 3 Zrotation Yrotation Xrotation
						End Site
						{
							OFFSET 0.000000 0.000000 0.000000
						}
					}
				}
				JOINT lclavicle
				{
					OFFSET 0.071702 0.114000 -0.018898
					CHANNELS 3 Zrotation Yrotation Xrotation
					JOINT lshoulder
					{
						OFFSET 0.122921 0.045205 -0.019046
						CHANNELS 3 Zrotation Yrotation Xrotation
						JOINT lelbow
						{
							OFFSET 0.255332 -0.015649 -0.022946
							CHANNELS 3 Zrotation Yrotation Xrotation
							JOINT lwrist
							{
								OFFSET 0.265709 0.012698 -0.007375
								CHANNELS 3 Zrotation Yrotation Xrotation
								End Site
								{
									OFFSET 0.000000 0.000000 0.000000
								}
							}
						}
					}
				}
				JOINT rclavicle
				{
					OFFSET -0.082954 0.112472 -0.023707
					CHANNELS 3 Zrotation Yrotation Xrotation
					JOINT rshoulder
					{
						OFFSET -0.113228 0.046853 -0.008472
						CHANNELS 3 Zrotation Yrotation Xrotation
						JOINT relbow
						{
							OFFSET -0.260127 -0.014369 -0.031269
							CHANNELS 3 Zrotation Yrotation Xrotation
							JOINT rwrist
							{
								OFFSET -0.269108 0.006794 -0.006027
								CHANNELS 3 Zrotation Yrotation Xrotation
								End Site
								{
									OFFSET 0.000000 0.000000 0.000000
								}
							}
						}
					}
				}
			}
		}
	}
}
MOTION
Frames: 7
Frame Time: 0.033333
-0.003171 0.229351 1.018443 90.874902 -2.236423 82.701958 3.570603 0.826545 5.190859 -3.375112 -2.309936 3.835474 -1.857487 10.294244 -1.889487 0.000000 -0.000000 0.000000 -3.236903 -4.168398 2.544164 0.390746 -3.643656 10.574099 4.447769 -7.100460 -6.438808 0.000000 -0.000000 0.000000 0.509190 1.651239 10.877687 -0.294831 0.010151 2.882817 -0.887253 0.434324 2.719364 -2.491516 -5.284453 0.741581 2.443280 -3.897783 8.967216 -13.044483 0.206565 3.177802 -43.107966 -6.892807 19.660110 -157.101570 -64.939665 176.573637 12.290414 -13.503333 -45.971663 8.000686 4.743341 -1.524212 50.310807 1.763913 24.837838 160.214975 73.492738 -177.654651 1.586276 13.944303 -20.263426 
-0.007130 0.228401 1.018394 91.192815 -2.337713 82.889475 3.480961 0.856935 4.502903 -3.361783 -2.847720 4.086223 -2.132905 10.608335 -1.758238 0.000000 -0.000000 0.000000 -3.227795 -4.009910 1.894493 0.489885 -3.368833 10.908214 4.695064 -7.957376 -6.507550 0.000000 -0.000000 0.000000 0.532852 1.560219 11.229123 -0.460824 -0.073814 3.195947 -0.765024 0.401831 2.584058 -2.598235 -5.242776 0.655473 2.775269 -3.093985 8.136164 -12.269829 -1.850628 3.294348 -40.802561 -8.015596 20.157915 -157.727089 -64.500520 175.633664 13.729243 -12.849471 -47.857960 7.278664 6.821846 -1.376595 47.721889 2.554661 25.297451 158.601041 72.545781 178.149407 0.227458 14.368868 -25.253351 
-0.011936 0.227632 1.018530 91.541875 -2.477980 83.066941 3.431036 0.761938 3.829153 -3.438226 -3.086241 4.153400 -2.308148 10.858460 -1.535636 0.000000 -0.000000 0.000000 -3.264684 -3.992631 1.184839 0.587985 -3.136320 11.252860 4.739415 -8.636534 -6.437791 0.000000 -0.000000 0.000000 0.554536 1.539319 11.956382 -0.554938 -0.172053 3.124206 -0.627991 0.346680 2.467651 -2.757975 -4.942210 0.348820 3.006099 -2.785042 7.601288 -11.746249 -3.908684 3.054205 -37.675810 -9.547348 20.624250 -158.003009 -64.054042 173.027928 15.458326 -12.548522 -49.507542 6.513107 8.573650 -1.500238 44.506190 3.919059 25.811503 156.743929 71.360725 173.509435 -2.254718 14.512559 -29.063692 
-0.018599 0.226510 1.018686 91.927626 -2.549055 83.504439 3.393979 0.647696 2.400740 -3.456833 -3.409316 4.907800 -2.486224 11.206582 -1.393353 0.000000 -0.000000 0.000000 -3.170656 -3.918296 -0.128595 0.672531 -2.977647 11.956981 4.654261 -9.307717 -6.427564 0.000000 -0.000000 0.000000 0.775774 1.435367 12.799057 -0.669365 -0.295479 2.673303 -0.499749 0.333210 2.470728 -3.016249 -4.615811 0.065866 3.243761 -2.170260 6.589351 -10.593595 -6.422907 2.631038 -34.039489 -11.200217 20.719223 -159.914109 -63.405569 172.891103 16.351162 -12.355713 -52.161841 5.168754 10.754259 -1.905342 40.508818 5.875249 25.829998 155.853206 69.671972 170.483101 -4.478281 14.889630 -33.520888 
-0.022667 0.225773 1.018634 92.059520 -2.656612 83.726938 3.341135 0.515467 1.630023 -3.506485 -3.486183 5.346661 -2.603346 11.452778 -1.401044 0.000000 -0.000000 0.000000 -3.202027 -3.847389 -0.876866 0.780179 -2.770704 12.383524 4.621449 -9.721478 -6.427608 0.000000 -0.000000 0.000000 0.911800 1.340998 13.422623 -0.811574 -0.403892 2.347538 -0.477738 0.432324 2.367491 -3.150624 -4.435546 -0.102164 3.397088 -1.850954 6.074700 -9.872677 -7.954902 2.214217 -31.436345 -12.145636 20.746582 -161.105507 -62.837896 172.318733 17.985201 -12.242347 -53.148930 4.224698 12.172654 -2.162238 38.076094 7.111640 25.708926 156.640587 68.644752 169.712652 -6.085432 14.926760 -35.808697 
-0.028225 0.224843 1.018467 92.197771 -2.686206 83.973567 3.401934 0.405672 0.445745 -3.592192 -3.629408 6.302244 -2.730555 11.670335 -1.330589 0.000000 -0.000000 0.000000 -3.135354 -3.742951 -1.847013 0.905343 -2.613459 12.965357 4.591984 -10.138696 -6.448311 0.000000 -0.000000 0.000000 1.146972 1.475932 14.156110 -0.786871 -0.337523 1.949238 -0.292259 0.347998 2.364032 -3.499139 -4.400242 -0.246306 3.531752 -1.600388 5.330355 -8.882095 -10.088529 1.815667 -28.121998 -13.618782 20.117111 -163.359908 -62.411607 172.813096 19.282822 -12.369978 -54.281961 2.730497 13.971441 -2.690763 34.436851 8.700021 24.937063 158.136748 67.029928 169.652991 -8.333513 15.097625 -38.958671 
-0.033168 0.223946 1.018413 92.313057 -2.842837 84.189551 3.331395 0.328769 -0.802048 -3.683514 -3.592688 7.539725 -2.714695 11.909314 -1.491853 0.000000 -0.000000 0.000000 -3.261752 -3.794612 -2.731619 1.066498 -2.443102 13.590403 4.678257 -10.379612 -6.448038 0.000000 -0.000000 0.000000 1.435260 0.985015 14.820229 -1.075067 -0.821595 1.051791 -0.399913 1.067648 2.768348 -3.889628 -4.274295 0.061808 3.797634 -0.927889 4.343020 -7.687090 -11.847178 1.127365 -24.414564 -14.535089 19.231413 -166.287401 -61.794250 174.045037 20.723534 -12.280948 -55.160694 1.282649 16.106411 -3.111988 31.017844 10.456351 23.943881 161.028338 65.840708 171.311915 -9.765050 14.941715 -40.746187 
